<?xml version="1.0" encoding="UTF-8"?>
<svg version="1.1" xmlns="http://www.w3.org/2000/svg" width="380" height="380" viewBox="160 500 550 220">
<path d="M0 0 C1.10601562 0.38542969 2.21203125 0.77085937 3.3515625 1.16796875 C21.30563602 7.66423188 21.30563602 7.66423188 27.8371582 13.56176758 C33.1522665 17.36078259 39.16723983 16.68828672 45.45703125 16.63671875 C47.44098652 16.65257943 49.42494175 16.66844941 51.40889263 16.68484974 C54.17648665 16.701643 56.94386149 16.69594384 59.71148682 16.69030762 C64.54176299 16.68385284 69.37191503 16.70685623 74.20207214 16.7389679 C76.76755293 16.75377258 79.33312664 16.7577524 81.89863586 16.74919128 C100.51531916 16.80816352 114.29397387 22.51206124 128.21484375 34.984375 C141.46634223 48.52451998 144.13496977 62.20309201 144.0453186 80.58839417 C144.01636755 82.655659 143.98164835 84.72275832 143.94547701 86.78990865 C143.89203836 90.39662321 143.89052089 94.00340876 143.88265991 97.61045837 C143.8625471 103.67008477 143.81023471 109.72867236 143.73388672 115.7878418 C143.62728752 124.24811675 143.57633042 132.70801227 143.53813863 141.16883671 C143.46334539 156.92806129 143.36595704 172.68777057 143.06702423 188.44453812 C143.02230931 190.81654885 142.9825162 193.18865742 142.94762421 195.56083298 C142.89368516 198.89222857 142.8132302 202.22187254 142.72412109 205.55249023 C142.71160624 206.5286155 142.69909138 207.50474077 142.68619728 208.51044559 C142.49817216 214.14390517 141.80424596 217.56039192 138 222 C133.80747596 225.38970029 132.5540492 226 127 226 C127 256.69 127 287.38 127 319 C128.98 319.33 130.96 319.66 133 320 C141.9387965 323.29324082 150.73749461 331.10624191 156 339 C156.30297852 340.98649502 156.30297852 340.98649502 156.37890625 343.29454041 C156.42917969 344.61102318 156.42917969 344.61102318 156.48046875 345.95410156 C156.50753906 346.91533936 156.53460937 347.87657715 156.5625 348.86694336 C156.59859375 349.88244766 156.6346875 350.89795197 156.671875 351.94422913 C156.78998071 355.32586402 156.89482608 358.70778399 157 362.08984375 C157.08109938 364.46557256 157.16314649 366.84126919 157.24609375 369.2169342 C157.46379322 375.51084658 157.67082721 381.8050622 157.875 388.09942627 C158.23791136 399.24247079 158.61812134 410.38493584 159 421.52734375 C159.04058533 422.72363781 159.08117065 423.91993187 159.12298584 425.15247726 C159.76897746 444.09276895 160.64129292 463.00679236 161.84814453 481.91969299 C161.99793966 484.95820713 162.09772683 487.95886308 162 491 C161.67 491.33 161.34 491.66 161 492 C160.89109446 493.54023549 160.84419541 495.08495459 160.82421875 496.62890625 C160.80037109 497.58216797 160.77652344 498.53542969 160.75195312 499.51757812 C160.70956751 501.51997755 160.67800619 503.52264055 160.65820312 505.52539062 C160.4343353 513.29828992 158.80661205 518.63206554 153.8125 524.625 C150.66791488 527.28042743 147.3734855 529.48253145 143.890625 531.66796875 C141.86772381 532.86988216 141.86772381 532.86988216 141 535 C139.0880127 535.46803761 139.0880127 535.46803761 136.54882812 535.77534485 C135.60148804 535.89316661 134.65414795 536.01098837 133.67810059 536.13238049 C132.12040955 536.30915561 132.12040955 536.30915561 130.53125 536.48950195 C128.90926697 536.68094142 128.90926697 536.68094142 127.2545166 536.87624836 C77.81752543 542.56429986 28.36366595 542.55234663 -21.32173634 542.3446511 C-30.05219411 542.30923936 -38.78260384 542.29797084 -47.51312256 542.28938007 C-56.04294374 542.28097561 -64.57274436 542.26382489 -73.10254669 542.24434257 C-74.88851111 542.24034792 -76.6744761 542.23660119 -78.46044159 542.2331202 C-97.07555954 542.19644643 -115.67901992 542.06093414 -134.28735352 541.52783203 C-135.37726923 541.49695667 -135.37726923 541.49695667 -136.48920345 541.46545756 C-147.33714211 541.15099648 -158.133623 540.5908433 -168.9375 539.5625 C-170.43679804 539.42571024 -171.9361483 539.28949185 -173.43554688 539.15380859 C-175.63638558 538.95375675 -177.83702324 538.7522453 -180.03720093 538.54504395 C-184.21093286 538.15278263 -188.38398021 537.81887715 -192.56640625 537.53515625 C-193.50556885 537.46417725 -194.44473145 537.39319824 -195.41235352 537.32006836 C-197.06397585 537.19556168 -198.71690141 537.08668553 -200.37084961 536.99829102 C-204.10770259 536.6859225 -205.67623712 536.35172168 -208.26171875 533.54296875 C-208.83535156 532.70378906 -209.40898437 531.86460937 -210 531 C-211.85174611 529.8777454 -211.85174611 529.8777454 -213.8125 529.1875 C-219.35665178 526.63822647 -223.48965216 522.22180177 -226.078125 516.70019531 C-227.05410113 513.84153642 -227.23050381 511.70807576 -227.1953125 508.69921875 C-227.18886719 507.72275391 -227.18242187 506.74628906 -227.17578125 505.74023438 C-227.15902344 504.73283203 -227.14226562 503.72542969 -227.125 502.6875 C-227.11597656 501.66076172 -227.10695312 500.63402344 -227.09765625 499.57617188 C-227.07416201 497.05054101 -227.04131131 494.5253919 -227 492 C-227.66 492 -228.32 492 -229 492 C-229.24978306 476.76707601 -228.97610988 461.64434939 -228.125 446.4375 C-226.93238818 425.12047914 -226.33838313 403.79020538 -225.7566967 382.44964409 C-225.52527302 373.96571919 -225.27881871 365.48252912 -225 357 C-224.96845825 356.02386749 -224.9369165 355.04773499 -224.90441895 354.04202271 C-224.81979613 351.62340586 -224.71787932 349.20652364 -224.60546875 346.7890625 C-224.52462036 344.93788818 -224.52462036 344.93788818 -224.44213867 343.04931641 C-223.73255343 338.15548998 -221.60428428 335.24629668 -218 332 C-217.18982422 331.21302734 -217.18982422 331.21302734 -216.36328125 330.41015625 C-210.35434164 324.90546332 -203.81797457 320.37792053 -196 318 C-195.9906543 317.38479492 -195.98130859 316.76958984 -195.97167969 316.13574219 C-195.91788915 313.33968914 -195.83426181 310.5452938 -195.75 307.75 C-195.73582031 306.78191406 -195.72164063 305.81382812 -195.70703125 304.81640625 C-195.67480469 303.88183594 -195.64257812 302.94726562 -195.609375 301.984375 C-195.58842773 301.12553711 -195.56748047 300.26669922 -195.54589844 299.38183594 C-194.80724812 296.15899495 -193.62898174 294.97117885 -191 293 C-188.44824219 292.45410156 -188.44824219 292.45410156 -185.546875 292.390625 C-184.4633374 292.35807617 -183.3797998 292.32552734 -182.26342773 292.29199219 C-181.10399658 292.27813477 -179.94456543 292.26427734 -178.75 292.25 C-177.56027588 292.22325195 -176.37055176 292.19650391 -175.14477539 292.16894531 C-172.66782393 292.11843879 -170.19065105 292.07789341 -167.71337891 292.046875 C-164.12451804 292.00157183 -160.53742747 291.92462243 -156.94921875 291.84375 C-154.77868381 291.80996487 -152.60810939 291.77860441 -150.4375 291.75 C-148.90464355 291.7176123 -148.90464355 291.7176123 -147.34082031 291.68457031 C-146.40206055 291.68038086 -145.46330078 291.67619141 -144.49609375 291.671875 C-143.67294678 291.6625293 -142.8497998 291.65318359 -142.00170898 291.64355469 C-141.34114502 291.76118164 -140.68058105 291.87880859 -140 292 C-138 295 -138 295 -138.125 297.125 C-139 300 -139 300 -139.96484375 301.69140625 C-144.19886193 309.3909909 -144.34781481 318.44422066 -143 327 C-141.34771165 331.6460898 -139.28591788 336.20963075 -135.32421875 339.3125 C-133.17525228 342.05100594 -133.64348384 345.22308574 -133.625 348.5625 C-133.31133148 356.88218396 -131.80755056 363.10421743 -125.80859375 369.2421875 C-124.29824759 370.60075258 -122.75865347 371.92795991 -121.18359375 373.2109375 C-116.982899 376.65265163 -114.70439182 379.02953192 -113.1875 384.3125 C-110.65245935 391.6818042 -106.64847324 395.91911046 -99.6875 399.375 C-96.31134707 400.77024687 -93.5723983 401.12617503 -89.9375 401.1875 C-86.62145988 401.38256118 -85.35712973 401.68412713 -82.8359375 403.9140625 C-81.48736803 405.5125599 -80.16410674 407.13275653 -78.8671875 408.7734375 C-74.25301286 414.27569596 -67.51931978 416.53394515 -60.5 417.2578125 C-50.86158036 417.66854061 -43.17862823 415.23100558 -35.875 408.875 C-33.04269006 406.22833971 -33.04269006 406.22833971 -31 403 C-27.56046863 404.14651046 -26.71119276 405.61639059 -24.52734375 408.37109375 C-20.21793262 412.96706419 -14.59129403 415.83130316 -8.33984375 416.23828125 C3.08473731 416.52747817 11.73433637 415.51293419 20.52734375 407.5625 C22.09555397 405.99322462 22.09555397 405.99322462 23.375 403.87109375 C25.51558161 401.40633752 26.85851028 401.39903417 30.0625 401.0625 C37.68320715 399.88310485 44.37374451 397.49182376 49.375 391.375 C51.56341684 388.17421304 52.68289695 385.07005708 53.8125 381.375 C55.59299205 375.95157651 57.90516902 374.28284435 62.74609375 371.5234375 C68.3287301 367.75007844 71.27749599 361.33944399 73 355 C73.13808474 352.71097987 73.21935889 350.4179766 73.25 348.125 C73.64435541 341.18726597 75.48657837 338.03193482 80 333 C84.3007089 325.43668435 85.335707 316.98765209 83.43359375 308.4609375 C82.33909375 305.03417835 81.29601272 302.39468362 79.125 299.5 C77.73096329 296.40214063 78.20501036 295.53025997 79.25 292.375 C79.81952566 290.91121914 80.40169298 289.45225432 81 288 C83.79133513 279.6259946 82.62857806 269.44561624 79.3515625 261.39453125 C77.93160278 258.87882226 76.38752431 257.24390196 74.3125 255.25 C69.86004184 250.66603464 70.481358 245.94728582 70.359375 239.8359375 C69.613248 231.87184283 65.27131608 224.88403363 60 219 C58.34683335 217.88483071 56.65744324 216.82163713 54.9375 215.8125 C50.0708244 212.54436748 48.91318051 210.09286651 47.6875 204.4921875 C45.98611679 198.32467336 41.20644345 193.51232388 35.99609375 190.0078125 C33.64923358 188.82290071 31.3575573 188.21277896 28.8125 187.5625 C23.83424798 186.23197619 22.69154071 184.42801859 20 180 C15.13886677 176.0383678 9.83177671 173.2334464 4 171 C6.84152298 167.9995107 9.78747922 165.65277404 13.1875 163.3125 C28.95206699 151.93514273 39.41020145 135.50801729 43.5546875 116.44921875 C45.47986739 101.53751835 45.03908249 86.85002293 39 73 C38.58983643 72.05205566 38.58983643 72.05205566 38.17138672 71.08496094 C29.60890544 51.86662436 14.52267218 39.05383307 -4.80859375 31.19140625 C-24.00875459 24.02365955 -45.88054299 24.8920435 -64.50488281 33.37817383 C-71.42971261 36.71806675 -77.31674222 40.85708592 -83 46 C-83.76957031 46.67675781 -84.53914062 47.35351562 -85.33203125 48.05078125 C-94.72787008 56.80635849 -100.77552617 67.96665031 -105 80 C-105.47953125 81.36125 -105.47953125 81.36125 -105.96875 82.75 C-111.83133067 102.29193556 -107.47982289 123.01963449 -98.58984375 140.82421875 C-91.19554251 153.94446913 -79.79979638 163.41493548 -67 171 C-68.97234143 172.48913974 -70.94939397 173.9640828 -72.96484375 175.39453125 C-76.28074619 177.77804132 -78.8076004 179.73812276 -81.25 183.0625 C-84.23747677 186.97782792 -88.67537549 188.07124468 -93.12890625 189.8046875 C-100.70779026 192.95997799 -104.38612015 198.84866677 -108 206 C-108.48424028 207.40802175 -108.94539237 208.82435938 -109.375 210.25 C-110.79611294 214.4460672 -113.38295299 216.08066826 -116.9453125 218.52734375 C-124.17485236 223.70897213 -126.97810689 230.85693406 -130 239 C-149.27892786 238.57671017 -167.99339728 232.51324149 -182.109375 219.05078125 C-196.47626224 203.46686431 -201.12871912 178.45897377 -201.16113281 157.83422852 C-201.16609772 157.06057449 -201.17106262 156.28692047 -201.17617798 155.48982239 C-201.19067304 152.95284095 -201.19758265 150.41592215 -201.203125 147.87890625 C-201.20595238 147.00279127 -201.20877975 146.12667629 -201.21169281 145.22401237 C-201.22663903 140.5813861 -201.23589556 135.9387905 -201.24023438 131.29614258 C-201.24569197 126.54935238 -201.26967554 121.80285294 -201.29820633 117.0561533 C-201.31702507 113.36420429 -201.32204855 109.67232239 -201.32357025 105.98032951 C-201.3265575 104.23318848 -201.33444919 102.48604746 -201.34775543 100.73895454 C-201.51097672 77.64806168 -198.54462175 50.37776029 -182.0078125 32.83984375 C-168.84087758 20.77442284 -156.13167326 16.63922579 -138.58203125 16.90234375 C-136.16862243 16.9064089 -133.75520912 16.90829319 -131.34179688 16.90820312 C-127.5804541 16.91628361 -123.8212138 16.93736336 -120.06030273 16.99633789 C-104.62127435 17.21427441 -94.04636225 17.19941905 -82 7 C-75.77768027 3.51107362 -69.17559023 1.30921368 -62.375 -0.75 C-61.68237061 -0.96108398 -60.98974121 -1.17216797 -60.27612305 -1.38964844 C-42.17655424 -6.60191344 -17.59847258 -6.80444721 0 0 Z " fill="#3F3F40" transform="translate(468,342)"/>
<path d="M0 0 C5.65702463 2.91509942 10.37147535 7.39529445 13.234375 13.12109375 C15.24217165 13.69011688 17.26655304 14.20107177 19.296875 14.68359375 C26.35227624 16.7459418 30.28068555 19.96745112 34.234375 26.12109375 C35.72114285 29.29803091 36.23451611 31.12511531 36.359375 34.68359375 C36.81993852 38.10351567 36.81993852 38.10351567 38.828125 39.17578125 C40.22821775 39.7842831 41.63213336 40.38403858 43.0390625 40.9765625 C47.08102546 43.08384924 49.58683741 46.49248893 52.234375 50.12109375 C52.65976562 50.6934375 53.08515625 51.26578125 53.5234375 51.85546875 C56.35481221 56.45899886 56.40183204 60.77523752 56.484375 66.05859375 C56.58983264 71.537997 57.17830546 74.99887102 61.109375 79.05859375 C62.18832031 80.08533203 62.18832031 80.08533203 63.2890625 81.1328125 C68.00319378 85.95107117 68.43052746 92.07904489 68.734375 98.55859375 C68.62748016 104.26410575 67.27146711 108.15166147 64.328125 113 C62.92883544 115.31587415 62.92883544 115.31587415 63.234375 119.12109375 C64.1783204 120.59600844 65.18719942 122.03008759 66.234375 123.43359375 C70.37559347 130.05758064 70.20904872 136.53558954 69.234375 144.12109375 C67.53884709 150.53633678 63.44283838 154.25863776 58.234375 158.12109375 C58.564375 159.11109375 58.894375 160.10109375 59.234375 161.12109375 C60.08451209 169.78034722 59.582099 177.01644364 54.234375 184.12109375 C50.62527892 187.62298895 47.21570559 190.13370305 42.234375 191.12109375 C42.151875 192.11109375 42.069375 193.10109375 41.984375 194.12109375 C40.90268935 201.3566937 37.63300821 206.32402401 32.015625 210.89453125 C27.68665207 213.87544682 24.80576174 214.35252148 19.484375 214.24609375 C18.31390625 214.22804688 17.1434375 214.21 15.9375 214.19140625 C15.04546875 214.16820312 14.1534375 214.145 13.234375 214.12109375 C12.93660156 214.89453125 12.63882813 215.66796875 12.33203125 216.46484375 C10.0181764 222.06420779 6.35723288 225.40273657 1.0625 228.1640625 C-5.36441355 230.33891584 -12.86736416 230.48668821 -19.296875 228.234375 C-26.29453182 224.18380826 -31.27225416 217.76821852 -33.765625 210.12109375 C-34.03836769 207.34866581 -34.1722299 204.80881341 -34.14657593 202.04408264 C-34.15359589 200.86751489 -34.15359589 200.86751489 -34.16075766 199.66717809 C-34.17266824 197.0540668 -34.16326599 194.44148379 -34.15380859 191.82836914 C-34.15787608 189.94871211 -34.16321896 188.06905747 -34.16973877 186.18940735 C-34.183398 181.09434608 -34.17811918 175.99946737 -34.16860151 170.90440297 C-34.16099662 165.56699593 -34.16805294 160.22960432 -34.17276001 154.89219666 C-34.17821561 145.92850952 -34.17103155 136.96489657 -34.15673828 128.0012207 C-34.14041715 117.6464226 -34.1456972 107.29180176 -34.1622175 96.93700796 C-34.17584386 88.03913549 -34.17774624 79.14131629 -34.16990149 70.24343675 C-34.16523067 64.93245981 -34.16458379 59.62156611 -34.17451096 54.31059456 C-34.18319487 49.3159718 -34.1771326 44.3215769 -34.15982819 39.32697868 C-34.15587075 37.49685926 -34.15698463 35.66672057 -34.16361618 33.83660889 C-34.17185142 31.33251229 -34.16148662 28.82913937 -34.14657593 26.3250885 C-34.15326809 25.606104 -34.15996026 24.88711949 -34.16685522 24.14634758 C-34.08712653 17.21197626 -32.15234949 11.02635335 -27.453125 5.80859375 C-26.90011719 5.17308594 -26.34710938 4.53757812 -25.77734375 3.8828125 C-18.70670698 -2.30914319 -8.75740726 -2.78307434 0 0 Z " fill="#21535B" transform="translate(474.765625,521.87890625)"/>
<path d="M0 0 C7.26517859 3.79105796 11.82663296 9.20712441 14.328125 17.08984375 C14.60509594 19.8960492 14.7429039 22.47464849 14.72253418 25.27401733 C14.73167084 26.46790272 14.73167084 26.46790272 14.74099207 27.68590701 C14.75756714 30.33811532 14.75285419 32.98984064 14.74804688 35.64208984 C14.7553904 37.54968258 14.76397745 39.45727087 14.77371216 41.36485291 C14.79590698 46.5364048 14.79885985 51.70779726 14.79696465 56.87939024 C14.79684485 61.20089333 14.80541266 65.52236275 14.81374216 69.84385645 C14.83296893 80.04143502 14.83586268 90.23893172 14.82910156 100.43652344 C14.82246106 110.94702403 14.8453273 121.45717367 14.88241529 131.96760309 C14.91312989 141.00052707 14.92447041 150.03333824 14.92057848 159.06631339 C14.91851282 164.45732487 14.92396218 169.84806321 14.94847107 175.23902512 C14.9707646 180.31008805 14.9688385 185.38058106 14.94854355 190.4516468 C14.94513814 192.30876802 14.95020232 194.16592781 14.96452713 196.0229969 C15.03926452 206.43329156 15.0553392 214.87972303 7.64913177 222.91040611 C2.64199086 227.86473757 -3.70633551 230.09805603 -10.671875 230.52734375 C-18.07234065 230.20302055 -24.55990714 226.20181161 -29.671875 221.08984375 C-31.19590562 218.81091946 -32.42254138 216.54045969 -33.671875 214.08984375 C-34.83203125 214.17685547 -34.83203125 214.17685547 -36.015625 214.265625 C-43.39010394 214.58506406 -48.04914729 214.00481552 -53.671875 209.08984375 C-57.77694456 205.2646653 -58.97032145 202.35906918 -60.484375 196.96484375 C-61.66804181 192.74819356 -61.66804181 192.74819356 -64.5234375 189.63671875 C-65.90215188 189.02739929 -67.29890955 188.45722954 -68.7109375 187.9296875 C-73.09125916 186.05365332 -75.19023216 181.92026245 -77.484375 177.96484375 C-79.86943775 171.94154969 -79.48983219 164.23277974 -77.671875 158.08984375 C-78.48591797 157.47109375 -78.48591797 157.47109375 -79.31640625 156.83984375 C-85.60094237 151.7669209 -88.05832461 148.02354792 -89.05078125 140.04296875 C-89.50979489 131.72212569 -87.59867114 126.701451 -82.671875 120.08984375 C-82.011875 119.09984375 -81.351875 118.10984375 -80.671875 117.08984375 C-81.02121094 116.55875 -81.37054688 116.02765625 -81.73046875 115.48046875 C-82.18550781 114.7740625 -82.64054687 114.06765625 -83.109375 113.33984375 C-83.56183594 112.64375 -84.01429688 111.94765625 -84.48046875 111.23046875 C-87.99018817 104.92448107 -87.69747675 96.11382037 -86.671875 89.08984375 C-84.70491386 84.04172513 -81.78021987 79.65791313 -77.671875 76.08984375 C-77.011875 76.08984375 -76.351875 76.08984375 -75.671875 76.08984375 C-75.71828125 75.12304688 -75.7646875 74.15625 -75.8125 73.16015625 C-76.13288349 61.6034661 -74.61294144 53.41041632 -66.4765625 44.78515625 C-63.17103537 41.6799641 -60.39106672 39.08984375 -55.671875 39.08984375 C-55.754375 38.09984375 -55.836875 37.10984375 -55.921875 36.08984375 C-55.86367756 30.30501804 -53.52333473 26.19394666 -49.75390625 21.91015625 C-45.03078751 17.34586806 -41.14354104 15.37746137 -34.81640625 13.8515625 C-31.43259102 12.64966092 -30.44354552 10.10168363 -28.671875 7.08984375 C-20.49723112 -0.28302269 -10.89383454 -3.71091147 0 0 Z " fill="#21535B" transform="translate(420.671875,521.91015625)"/>
<path d="M0 0 C0.80373047 -0.01224609 1.60746094 -0.02449219 2.43554688 -0.03710938 C19.10830672 -0.07734934 33.47423507 7.17584104 45.4375 18.5 C49.73699972 22.95874045 52.79336558 27.73658426 55.6875 33.1875 C56.25597656 34.18910156 56.25597656 34.18910156 56.8359375 35.2109375 C63.50028571 47.48736841 64.53310211 61.68719515 61.6875 75.25 C56.79597782 91.75888737 47.56787873 105.91024246 32.515625 114.7265625 C16.53918515 122.97958529 0.49331853 126.04650888 -17.1328125 121.27734375 C-33.3737866 115.71071995 -47.04954345 105.16679566 -54.9375 89.625 C-61.99687108 75.19758898 -64.05042628 58.77525925 -59.25 43.3125 C-51.78343258 23.8372033 -39.6083793 11.60887178 -20.859375 3.0703125 C-13.9984528 0.32070627 -7.27948697 0.00575454 0 0 Z " fill="#3C3D3E" transform="translate(435.3125,382.8125)"/>
<path d="M0 0 C0.66 0.33 1.32 0.66 2 1 C1.30003906 1.62068359 1.30003906 1.62068359 0.5859375 2.25390625 C-1.14426812 4.15883707 -1.65277768 5.49413747 -2.375 7.9375 C-3.74288724 11.88193676 -5.48203169 13.65468779 -9 16 C-9.66 16.66 -10.32 17.32 -11 18 C-9.94945786 10.82340489 -5.37143477 4.75165383 0 0 Z " fill="#2B2D30" transform="translate(287,375)"/>
<path d="M0 0 C0.33 0.99 0.66 1.98 1 3 C-0.98 4.32 -2.96 5.64 -5 7 C-5.66 5.35 -6.32 3.7 -7 2 C-2.25 0 -2.25 0 0 0 Z " fill="#5B5B5A" transform="translate(621,864)"/>
<path d="M0 0 C1.50559539 1.96382007 2.89131683 3.78263366 4 6 C4.99 6.33 5.98 6.66 7 7 C4.69 7 2.38 7 0 7 C-0.66 5.35 -1.32 3.7 -2 2 C-1.34 1.34 -0.68 0.68 0 0 Z " fill="#292A2B" transform="translate(261,870)"/>
</svg>
